{"title":"Nymphomaniac Vol.I 2013 Limited.1080p.BluRay 5.1 x264 . NVEE","uid":10383042,"size":2469797321,"categoryP":"video","categoryS":"hd___movies","magnet":"?xt=urn:btih:81f309721f7f070dbab5937fe82aa96339654e41&amp;dn=Nymphomaniac+Vol.I+2013+Limited.1080p.BluRay+5.1+x264+.+NVEE&amp;tr=udp%3A%2F%2Ftracker.openbittorrent.com%3A80&amp;tr=udp%3A%2F%2Fopen.demonii.com%3A1337&amp;tr=udp%3A%2F%2Ftracker.coppersurfer.tk%3A6969&amp;tr=udp%3A%2F%2Fexodus.desync.com%3A6969","seeders":12,"leechers":0,"uploader":".NVEE","files":-1,"time":1403104562,"description":"\nQuick note :\nPlease seed to a Share Ratio of at least 1.1\nIf you require a torrent release I have posted in the past, not seeding,...\nPlease do not hesitate to inform me in any means you find fit to do so.\nTorrent requests also &quot;Always Welcome.&quot;\n\n\nFULL_INFOs\n\n99.99% --- SYNCED GUARANTEED \n\n&quot;Totally scrutinized / analyzed to be a verified torrent.&quot;\n___________________________________________\n\nSource : Blu-ray ~ 1080p\n\n\n\nSpoken Language : English\n\nAudio : 6 ~ Channels Only\n\n\nSubs Info :\n\nx3 ~ English embedded ~ UTF-8\n\nText #1\nID : 3\nFormat : Timed Text\nCodec ID : tx3g\nDuration : 1h 57mn\nBit rate mode : Variable\nBit rate : 60 bps\nStream size : 51.4 KiB (0%)\nTitle : SDH Orig.\nLanguage : English\nEncoded date : UTC 2014-05-06 21:47:39\nTagged date : UTC 2014-05-06 21:47:39\n\nText #2\nID : 4\nFormat : Timed Text\nCodec ID : tx3g\nDuration : 1h 57mn\nBit rate mode : Variable\nBit rate : 55 bps\nStream size : 47.0 KiB (0%)\nLanguage : English\nEncoded date : UTC 2014-05-06 21:47:39\nTagged date : UTC 2014-05-06 21:47:39\n\nText #3\nID : 5\nFormat : Timed Text\nCodec ID : tx3g\nDuration : 1h 57mn\nBit rate mode : Variable\nBit rate : 60 bps\nStream size : 51.4 KiB (0%)\nTitle : SDH Low\nLanguage : English\nEncoded date : UTC 2014-05-06 21:47:39\nTagged date : UTC 2014-05-06 21:47:39\nAll .srt UTF-8 &amp; .idx subs can be turned On/Off\n_____________________________________\n---------------------------------------------------------------------------------\n\nGeneral Metadata\n\nComplete name : Nymphomaniac Vol.I.2013.Limited.816p.BluRay.5.1.X264 . NVEE.mp4\nFormat : MPEG-4\nFormat profile : Base Media\nCodec ID : isom\nFile size : 2.30 GiB\nDuration : 1h 57mn\nOverall bit rate mode : Variable\nOverall bit rate : 2 806 Kbps\nEncoded date : UTC 2014-05-06 21:35:58\nTagged date : UTC 2014-05-06 21:35:58\n\n\nVideo\n\nID : 1\nFormat : AVC\nFormat/Info : Advanced Video Codec\nFormat profile : &lt;a class=&quot;__cf_email__&quot; href=&quot;/cdn-cgi/l/email-protection&quot; data-cfemail=&quot;a0e8c9c7c8e0ec948e91&quot;&gt;[email&amp;#160;protected]&lt;/a&gt;&lt;script cf-hash='f9e31' type=&quot;text/javascript&quot;&gt;\n/* &lt;![CDATA[ */!function(){try{var t=&quot;currentScript&quot;in document?document.currentScript:function(){for(var t=document.getElementsByTagName(&quot;script&quot;),e=t.length;e--;)if(t[e].getAttribute(&quot;cf-hash&quot;))return t[e]}();if(t&amp;&amp;t.previousSibling){var e,r,n,i,c=t.previousSibling,a=c.getAttribute(&quot;data-cfemail&quot;);if(a){for(e=&quot;&quot;,r=parseInt(a.substr(0,2),16),n=2;a.length-n;n+=2)i=parseInt(a.substr(n,2),16)^r,e+=String.fromCharCode(i);e=document.createTextNode(e),c.parentNode.replaceChild(e,c)}}}catch(u){}}();/* ]]&gt; */&lt;/script&gt;\nFormat settings, CABAC : Yes\nFormat settings, ReFrames : 3 frames\nCodec ID : avc1\nCodec ID/Info : Advanced Video Coding\nDuration : 1h 57mn\nBit rate : 2 420 Kbps\nMaximum bit rate : 21.9 Mbps\nWidth : 1 920 pixels\nHeight : 816 pixels\nDisplay aspect ratio : 2.35:1\nFrame rate mode : Constant\nFrame rate : 23.976 fps\nColor space : YUV\nChroma subsampling : 4:2:0\nBit depth : 8 bits\nScan type : Progressive\nBits/(Pixel*Frame) : 0.064\nStream size : 1.98 GiB (86%)\nWriting library : x264 core 142 r2409 d6b4e63\nEncoded from Physical Blu-ray / Region A\n\n\nAudio\n\nID : 2\nFormat : AC-3\nFormat/Info : Audio Coding 3\nMode extension : CM (complete main)\nFormat settings, Endianness : Big\nCodec ID : ac-3\nDuration : 1h 57mn\nBit rate mode : Constant\nBit rate : 384 Kbps\nChannel(s) : 6 channels\nChannel positions : Front: L C R, Side: L R, LFE\nSampling rate : 48.0 KHz\nBit depth : 16 bits\nCompression mode : Lossy\nStream size : 322 MiB (14%)\nLanguage : English\nEncoded date : UTC 2014-05-06 21:46:20\nTagged date : UTC 2014-05-06 21:47:39\nEncoded from Physical Blu-ray 6 Channel audio &quot;Always&quot;.\n\n\nEnj0y !","torrent":{"xt":"urn:btih:81f309721f7f070dbab5937fe82aa96339654e41","amp;dn":"Nymphomaniac+Vol.I+2013+Limited.1080p.BluRay+5.1+x264+.+NVEE","amp;tr":["udp%3A%2F%2Ftracker.openbittorrent.com%3A80","udp%3A%2F%2Fopen.demonii.com%3A1337","udp%3A%2F%2Ftracker.coppersurfer.tk%3A6969","udp%3A%2F%2Fexodus.desync.com%3A6969"],"infoHash":"81f309721f7f070dbab5937fe82aa96339654e41","infoHashBuffer":{"type":"Buffer","data":[129,243,9,114,31,127,7,13,186,181,147,127,232,42,169,99,57,101,78,65]},"announce":[],"urlList":[]}}